<mxfile host="app.diagrams.net" agent="Mozilla/5.0 (Windows NT 10.0; Win64; x64) AppleWebKit/537.36 (KHTML, like Gecko) Chrome/129.0.0.0 Safari/537.36" version="24.7.16">
  <diagram id="C5RBs43oDa-KdzZeNtuy" name="Page-1">
    <mxGraphModel dx="1674" dy="1921" grid="1" gridSize="10" guides="1" tooltips="1" connect="1" arrows="1" fold="1" page="1" pageScale="1" pageWidth="827" pageHeight="1169" math="0" shadow="0">
      <root>
        <mxCell id="WIyWlLk6GJQsqaUBKTNV-0" />
        <mxCell id="WIyWlLk6GJQsqaUBKTNV-1" parent="WIyWlLk6GJQsqaUBKTNV-0" />
        <mxCell id="Lj0Z-jmc17e5JYTTC4Os-0" style="edgeStyle=orthogonalEdgeStyle;rounded=0;orthogonalLoop=1;jettySize=auto;html=1;entryX=0.5;entryY=0;entryDx=0;entryDy=0;" edge="1" parent="WIyWlLk6GJQsqaUBKTNV-1" source="Lj0Z-jmc17e5JYTTC4Os-1" target="Lj0Z-jmc17e5JYTTC4Os-3">
          <mxGeometry relative="1" as="geometry" />
        </mxCell>
        <mxCell id="Lj0Z-jmc17e5JYTTC4Os-1" value="Start" style="strokeWidth=2;html=1;shape=mxgraph.flowchart.start_2;whiteSpace=wrap;" vertex="1" parent="WIyWlLk6GJQsqaUBKTNV-1">
          <mxGeometry x="270" y="-100" width="100" height="100" as="geometry" />
        </mxCell>
        <mxCell id="Lj0Z-jmc17e5JYTTC4Os-27" style="edgeStyle=orthogonalEdgeStyle;rounded=0;orthogonalLoop=1;jettySize=auto;html=1;entryX=0.5;entryY=0;entryDx=0;entryDy=0;" edge="1" parent="WIyWlLk6GJQsqaUBKTNV-1" source="Lj0Z-jmc17e5JYTTC4Os-3" target="Lj0Z-jmc17e5JYTTC4Os-26">
          <mxGeometry relative="1" as="geometry" />
        </mxCell>
        <mxCell id="Lj0Z-jmc17e5JYTTC4Os-3" value="Introduce a positive number:" style="html=1;strokeWidth=2;shape=manualInput;whiteSpace=wrap;rounded=1;size=26;arcSize=11;" vertex="1" parent="WIyWlLk6GJQsqaUBKTNV-1">
          <mxGeometry x="260" y="30" width="120" height="80" as="geometry" />
        </mxCell>
        <mxCell id="Lj0Z-jmc17e5JYTTC4Os-4" style="edgeStyle=orthogonalEdgeStyle;rounded=0;orthogonalLoop=1;jettySize=auto;html=1;entryX=0.5;entryY=0;entryDx=0;entryDy=0;" edge="1" parent="WIyWlLk6GJQsqaUBKTNV-1" source="Lj0Z-jmc17e5JYTTC4Os-6" target="Lj0Z-jmc17e5JYTTC4Os-8">
          <mxGeometry relative="1" as="geometry" />
        </mxCell>
        <mxCell id="Lj0Z-jmc17e5JYTTC4Os-5" value="Yes" style="edgeLabel;html=1;align=center;verticalAlign=middle;resizable=0;points=[];" vertex="1" connectable="0" parent="Lj0Z-jmc17e5JYTTC4Os-4">
          <mxGeometry x="-0.72" y="-4" relative="1" as="geometry">
            <mxPoint as="offset" />
          </mxGeometry>
        </mxCell>
        <mxCell id="Lj0Z-jmc17e5JYTTC4Os-6" value="Is input or cap greater than 0?" style="strokeWidth=2;html=1;shape=mxgraph.flowchart.decision;whiteSpace=wrap;" vertex="1" parent="WIyWlLk6GJQsqaUBKTNV-1">
          <mxGeometry x="235" y="490" width="170" height="140" as="geometry" />
        </mxCell>
        <mxCell id="Lj0Z-jmc17e5JYTTC4Os-7" style="edgeStyle=orthogonalEdgeStyle;rounded=0;orthogonalLoop=1;jettySize=auto;html=1;entryX=0.5;entryY=0;entryDx=0;entryDy=0;" edge="1" parent="WIyWlLk6GJQsqaUBKTNV-1" source="Lj0Z-jmc17e5JYTTC4Os-8" target="Lj0Z-jmc17e5JYTTC4Os-13">
          <mxGeometry relative="1" as="geometry" />
        </mxCell>
        <mxCell id="Lj0Z-jmc17e5JYTTC4Os-8" value="result = input * multiple" style="rounded=1;whiteSpace=wrap;html=1;absoluteArcSize=1;arcSize=14;strokeWidth=2;" vertex="1" parent="WIyWlLk6GJQsqaUBKTNV-1">
          <mxGeometry x="270" y="660" width="100" height="100" as="geometry" />
        </mxCell>
        <mxCell id="Lj0Z-jmc17e5JYTTC4Os-9" value="multiplo = 1&lt;div&gt;input = keyboard.nextInt&lt;/div&gt;" style="rounded=1;whiteSpace=wrap;html=1;absoluteArcSize=1;arcSize=14;strokeWidth=2;" vertex="1" parent="WIyWlLk6GJQsqaUBKTNV-1">
          <mxGeometry x="270" y="310" width="100" height="100" as="geometry" />
        </mxCell>
        <mxCell id="Lj0Z-jmc17e5JYTTC4Os-10" value="Input and cap are defined by what integer is introduced in the keyboard" style="strokeWidth=2;html=1;shape=mxgraph.flowchart.annotation_2;align=left;labelPosition=right;pointerEvents=1;" vertex="1" parent="WIyWlLk6GJQsqaUBKTNV-1">
          <mxGeometry x="370" y="310" width="50" height="100" as="geometry" />
        </mxCell>
        <mxCell id="Lj0Z-jmc17e5JYTTC4Os-11" style="edgeStyle=orthogonalEdgeStyle;rounded=0;orthogonalLoop=1;jettySize=auto;html=1;entryX=0.5;entryY=0;entryDx=0;entryDy=0;entryPerimeter=0;" edge="1" parent="WIyWlLk6GJQsqaUBKTNV-1" source="Lj0Z-jmc17e5JYTTC4Os-9" target="Lj0Z-jmc17e5JYTTC4Os-6">
          <mxGeometry relative="1" as="geometry" />
        </mxCell>
        <mxCell id="Lj0Z-jmc17e5JYTTC4Os-12" style="edgeStyle=orthogonalEdgeStyle;rounded=0;orthogonalLoop=1;jettySize=auto;html=1;entryX=0.5;entryY=0;entryDx=0;entryDy=0;" edge="1" parent="WIyWlLk6GJQsqaUBKTNV-1" source="Lj0Z-jmc17e5JYTTC4Os-13" target="Lj0Z-jmc17e5JYTTC4Os-20">
          <mxGeometry relative="1" as="geometry" />
        </mxCell>
        <mxCell id="Lj0Z-jmc17e5JYTTC4Os-13" value="System.out.println&lt;div&gt;input * multiple = result&lt;/div&gt;" style="shape=parallelogram;html=1;strokeWidth=2;perimeter=parallelogramPerimeter;whiteSpace=wrap;rounded=1;arcSize=12;size=0.23;" vertex="1" parent="WIyWlLk6GJQsqaUBKTNV-1">
          <mxGeometry x="225" y="850" width="190" height="90" as="geometry" />
        </mxCell>
        <mxCell id="Lj0Z-jmc17e5JYTTC4Os-14" value="Multiplication displayed in screen" style="strokeWidth=2;html=1;shape=mxgraph.flowchart.annotation_2;align=left;labelPosition=right;pointerEvents=1;" vertex="1" parent="WIyWlLk6GJQsqaUBKTNV-1">
          <mxGeometry x="414" y="845" width="50" height="100" as="geometry" />
        </mxCell>
        <mxCell id="Lj0Z-jmc17e5JYTTC4Os-15" style="edgeStyle=orthogonalEdgeStyle;rounded=0;orthogonalLoop=1;jettySize=auto;html=1;" edge="1" parent="WIyWlLk6GJQsqaUBKTNV-1" source="Lj0Z-jmc17e5JYTTC4Os-19">
          <mxGeometry relative="1" as="geometry">
            <mxPoint x="320" y="280" as="targetPoint" />
            <Array as="points">
              <mxPoint x="170" y="1180" />
              <mxPoint x="170" y="280" />
            </Array>
          </mxGeometry>
        </mxCell>
        <mxCell id="Lj0Z-jmc17e5JYTTC4Os-16" value="Yes" style="edgeLabel;html=1;align=center;verticalAlign=middle;resizable=0;points=[];" vertex="1" connectable="0" parent="Lj0Z-jmc17e5JYTTC4Os-15">
          <mxGeometry x="-0.9045" y="-3" relative="1" as="geometry">
            <mxPoint as="offset" />
          </mxGeometry>
        </mxCell>
        <mxCell id="Lj0Z-jmc17e5JYTTC4Os-17" style="edgeStyle=orthogonalEdgeStyle;rounded=0;orthogonalLoop=1;jettySize=auto;html=1;entryX=1;entryY=0.5;entryDx=0;entryDy=0;" edge="1" parent="WIyWlLk6GJQsqaUBKTNV-1" source="Lj0Z-jmc17e5JYTTC4Os-19" target="Lj0Z-jmc17e5JYTTC4Os-8">
          <mxGeometry relative="1" as="geometry">
            <Array as="points">
              <mxPoint x="760" y="1180" />
              <mxPoint x="760" y="710" />
            </Array>
          </mxGeometry>
        </mxCell>
        <mxCell id="Lj0Z-jmc17e5JYTTC4Os-18" value="No" style="edgeLabel;html=1;align=center;verticalAlign=middle;resizable=0;points=[];" vertex="1" connectable="0" parent="Lj0Z-jmc17e5JYTTC4Os-17">
          <mxGeometry x="-0.9504" y="1" relative="1" as="geometry">
            <mxPoint as="offset" />
          </mxGeometry>
        </mxCell>
        <mxCell id="Lj0Z-jmc17e5JYTTC4Os-19" value="Is multiple greater than cap?" style="strokeWidth=2;html=1;shape=mxgraph.flowchart.decision;whiteSpace=wrap;" vertex="1" parent="WIyWlLk6GJQsqaUBKTNV-1">
          <mxGeometry x="270" y="1130" width="100" height="100" as="geometry" />
        </mxCell>
        <mxCell id="Lj0Z-jmc17e5JYTTC4Os-20" value="++multiple" style="rounded=1;whiteSpace=wrap;html=1;absoluteArcSize=1;arcSize=14;strokeWidth=2;" vertex="1" parent="WIyWlLk6GJQsqaUBKTNV-1">
          <mxGeometry x="270" y="990" width="100" height="100" as="geometry" />
        </mxCell>
        <mxCell id="Lj0Z-jmc17e5JYTTC4Os-21" value="Adds +1 to the multiple everytime it does the multiplication" style="strokeWidth=2;html=1;shape=mxgraph.flowchart.annotation_2;align=left;labelPosition=right;pointerEvents=1;" vertex="1" parent="WIyWlLk6GJQsqaUBKTNV-1">
          <mxGeometry x="370" y="990" width="50" height="100" as="geometry" />
        </mxCell>
        <mxCell id="Lj0Z-jmc17e5JYTTC4Os-22" style="edgeStyle=orthogonalEdgeStyle;rounded=0;orthogonalLoop=1;jettySize=auto;html=1;entryX=0.5;entryY=0;entryDx=0;entryDy=0;entryPerimeter=0;" edge="1" parent="WIyWlLk6GJQsqaUBKTNV-1" source="Lj0Z-jmc17e5JYTTC4Os-20" target="Lj0Z-jmc17e5JYTTC4Os-19">
          <mxGeometry relative="1" as="geometry" />
        </mxCell>
        <mxCell id="Lj0Z-jmc17e5JYTTC4Os-23" value="END" style="strokeWidth=2;html=1;shape=mxgraph.flowchart.terminator;whiteSpace=wrap;" vertex="1" parent="WIyWlLk6GJQsqaUBKTNV-1">
          <mxGeometry x="270" y="1270" width="100" height="60" as="geometry" />
        </mxCell>
        <mxCell id="Lj0Z-jmc17e5JYTTC4Os-24" style="edgeStyle=orthogonalEdgeStyle;rounded=0;orthogonalLoop=1;jettySize=auto;html=1;entryX=0.5;entryY=0;entryDx=0;entryDy=0;entryPerimeter=0;" edge="1" parent="WIyWlLk6GJQsqaUBKTNV-1" source="Lj0Z-jmc17e5JYTTC4Os-6" target="Lj0Z-jmc17e5JYTTC4Os-23">
          <mxGeometry relative="1" as="geometry">
            <Array as="points">
              <mxPoint x="810" y="560" />
              <mxPoint x="810" y="1270" />
            </Array>
          </mxGeometry>
        </mxCell>
        <mxCell id="Lj0Z-jmc17e5JYTTC4Os-25" value="No" style="edgeLabel;html=1;align=center;verticalAlign=middle;resizable=0;points=[];" vertex="1" connectable="0" parent="Lj0Z-jmc17e5JYTTC4Os-24">
          <mxGeometry x="-0.9651" y="2" relative="1" as="geometry">
            <mxPoint as="offset" />
          </mxGeometry>
        </mxCell>
        <mxCell id="Lj0Z-jmc17e5JYTTC4Os-28" style="edgeStyle=orthogonalEdgeStyle;rounded=0;orthogonalLoop=1;jettySize=auto;html=1;" edge="1" parent="WIyWlLk6GJQsqaUBKTNV-1" source="Lj0Z-jmc17e5JYTTC4Os-26" target="Lj0Z-jmc17e5JYTTC4Os-9">
          <mxGeometry relative="1" as="geometry" />
        </mxCell>
        <mxCell id="Lj0Z-jmc17e5JYTTC4Os-26" value="Introduce a cap:" style="html=1;strokeWidth=2;shape=manualInput;whiteSpace=wrap;rounded=1;size=26;arcSize=11;" vertex="1" parent="WIyWlLk6GJQsqaUBKTNV-1">
          <mxGeometry x="270" y="150" width="100" height="60" as="geometry" />
        </mxCell>
        <mxCell id="Lj0Z-jmc17e5JYTTC4Os-29" value="The cap is the last multiplication that the program is gonna do before cycling" style="strokeWidth=2;html=1;shape=mxgraph.flowchart.annotation_2;align=left;labelPosition=right;pointerEvents=1;" vertex="1" parent="WIyWlLk6GJQsqaUBKTNV-1">
          <mxGeometry x="370" y="130" width="50" height="100" as="geometry" />
        </mxCell>
      </root>
    </mxGraphModel>
  </diagram>
</mxfile>
